<svg width="224" height="54" viewBox="0 0 224 54" fill="none" xmlns="http://www.w3.org/2000/svg">
<path d="M34.2123 45L27.5683 35.54C26.747 35.5987 26.1017 35.628 25.6323 35.628H18.0203V45H13.6203V14.2H25.6323C29.6217 14.2 32.7603 15.1533 35.0483 17.06C37.3363 18.9667 38.4803 21.592 38.4803 24.936C38.4803 27.312 37.8937 29.336 36.7203 31.008C35.547 32.68 33.875 33.8973 31.7043 34.66L39.0083 45H34.2123ZM25.5003 31.888C28.287 31.888 30.4137 31.2867 31.8803 30.084C33.347 28.8813 34.0803 27.1653 34.0803 24.936C34.0803 22.7067 33.347 21.0053 31.8803 19.832C30.4137 18.6293 28.287 18.028 25.5003 18.028H18.0203V31.888H25.5003ZM53.2502 21.46C56.4769 21.46 58.9409 22.252 60.6422 23.836C62.3729 25.42 63.2382 27.7813 63.2382 30.92V45H59.2342V41.92C58.5302 43.0053 57.5182 43.8413 56.1982 44.428C54.9076 44.9853 53.3676 45.264 51.5782 45.264C48.9676 45.264 46.8702 44.6333 45.2862 43.372C43.7316 42.1107 42.9542 40.4533 42.9542 38.4C42.9542 36.3467 43.7022 34.704 45.1982 33.472C46.6942 32.2107 49.0702 31.58 52.3262 31.58H59.0142V30.744C59.0142 28.9253 58.4862 27.532 57.4302 26.564C56.3742 25.596 54.8196 25.112 52.7662 25.112C51.3876 25.112 50.0382 25.3467 48.7182 25.816C47.3982 26.256 46.2836 26.8573 45.3742 27.62L43.6142 24.452C44.8169 23.484 46.2542 22.7507 47.9262 22.252C49.5982 21.724 51.3729 21.46 53.2502 21.46ZM52.2822 42.008C53.8956 42.008 55.2889 41.656 56.4622 40.952C57.6356 40.2187 58.4862 39.192 59.0142 37.872V34.616H52.5022C48.9236 34.616 47.1342 35.8187 47.1342 38.224C47.1342 39.3973 47.5889 40.3213 48.4982 40.996C49.4076 41.6707 50.6689 42.008 52.2822 42.008ZM83.5071 21.46C86.4698 21.46 88.8165 22.3253 90.5471 24.056C92.3071 25.7573 93.1871 28.2653 93.1871 31.58V45H88.9631V32.064C88.9631 29.8053 88.4205 28.104 87.3351 26.96C86.2498 25.816 84.6951 25.244 82.6711 25.244C80.3831 25.244 78.5791 25.9187 77.2591 27.268C75.9391 28.588 75.2791 30.4947 75.2791 32.988V45H71.0551V21.68H75.1031V25.2C75.9538 23.9973 77.0978 23.0733 78.5351 22.428C80.0018 21.7827 81.6591 21.46 83.5071 21.46ZM123.441 21.68V41.832C123.441 45.9093 122.429 48.916 120.405 50.852C118.381 52.8173 115.36 53.8 111.341 53.8C109.141 53.8 107.044 53.492 105.049 52.876C103.055 52.2893 101.441 51.4387 100.209 50.324L102.233 47.068C103.319 48.0067 104.653 48.74 106.237 49.268C107.851 49.8253 109.508 50.104 111.209 50.104C113.937 50.104 115.947 49.4587 117.237 48.168C118.557 46.8773 119.217 44.912 119.217 42.272V40.424C118.22 41.6267 116.988 42.536 115.521 43.152C114.084 43.7387 112.515 44.032 110.813 44.032C108.584 44.032 106.56 43.5627 104.741 42.624C102.952 41.656 101.544 40.3213 100.517 38.62C99.4906 36.8893 98.9772 34.924 98.9772 32.724C98.9772 30.524 99.4906 28.5733 100.517 26.872C101.544 25.1413 102.952 23.8067 104.741 22.868C106.56 21.9293 108.584 21.46 110.813 21.46C112.573 21.46 114.201 21.7827 115.697 22.428C117.223 23.0733 118.469 24.0267 119.437 25.288V21.68H123.441ZM111.297 40.336C112.823 40.336 114.187 40.0133 115.389 39.368C116.621 38.7227 117.575 37.828 118.249 36.684C118.953 35.5107 119.305 34.1907 119.305 32.724C119.305 30.4653 118.557 28.6467 117.061 27.268C115.565 25.86 113.644 25.156 111.297 25.156C108.921 25.156 106.985 25.86 105.489 27.268C103.993 28.6467 103.245 30.4653 103.245 32.724C103.245 34.1907 103.583 35.5107 104.257 36.684C104.961 37.828 105.915 38.7227 107.117 39.368C108.349 40.0133 109.743 40.336 111.297 40.336ZM152.588 33.472C152.588 33.7947 152.559 34.22 152.5 34.748H133.58C133.844 36.8013 134.739 38.4587 136.264 39.72C137.819 40.952 139.74 41.568 142.028 41.568C144.815 41.568 147.059 40.6293 148.76 38.752L151.092 41.48C150.036 42.712 148.716 43.6507 147.132 44.296C145.577 44.9413 143.832 45.264 141.896 45.264C139.432 45.264 137.247 44.7653 135.34 43.768C133.433 42.7413 131.952 41.3187 130.896 39.5C129.869 37.6813 129.356 35.628 129.356 33.34C129.356 31.0813 129.855 29.0427 130.852 27.224C131.879 25.4053 133.272 23.9973 135.032 23C136.821 21.9733 138.831 21.46 141.06 21.46C143.289 21.46 145.269 21.9733 147 23C148.76 23.9973 150.124 25.4053 151.092 27.224C152.089 29.0427 152.588 31.1253 152.588 33.472ZM141.06 25.024C139.036 25.024 137.335 25.64 135.956 26.872C134.607 28.104 133.815 29.7173 133.58 31.712H148.54C148.305 29.7467 147.499 28.148 146.12 26.916C144.771 25.6547 143.084 25.024 141.06 25.024ZM180.258 45.264C177.941 45.264 175.858 44.7507 174.01 43.724C172.162 42.6973 170.71 41.2893 169.654 39.5C168.627 37.6813 168.114 35.628 168.114 33.34C168.114 31.052 168.627 29.0133 169.654 27.224C170.71 25.4053 172.162 23.9973 174.01 23C175.858 21.9733 177.941 21.46 180.258 21.46C182.575 21.46 184.643 21.9733 186.462 23C188.31 23.9973 189.747 25.4053 190.774 27.224C191.83 29.0133 192.358 31.052 192.358 33.34C192.358 35.628 191.83 37.6813 190.774 39.5C189.747 41.2893 188.31 42.6973 186.462 43.724C184.643 44.7507 182.575 45.264 180.258 45.264ZM180.258 41.568C181.754 41.568 183.089 41.2307 184.262 40.556C185.465 39.852 186.403 38.884 187.078 37.652C187.753 36.3907 188.09 34.9533 188.09 33.34C188.09 31.7267 187.753 30.304 187.078 29.072C186.403 27.8107 185.465 26.8427 184.262 26.168C183.089 25.4933 181.754 25.156 180.258 25.156C178.762 25.156 177.413 25.4933 176.21 26.168C175.037 26.8427 174.098 27.8107 173.394 29.072C172.719 30.304 172.382 31.7267 172.382 33.34C172.382 34.9533 172.719 36.3907 173.394 37.652C174.098 38.884 175.037 39.852 176.21 40.556C177.413 41.2307 178.762 41.568 180.258 41.568ZM206.736 15.564C204.213 15.564 202.952 16.928 202.952 19.656V21.68H209.728V25.156H203.04V45H198.816V25.156H194.856V21.68H198.816V19.612C198.816 17.2947 199.49 15.4613 200.84 14.112C202.189 12.7627 204.081 12.088 206.516 12.088C207.454 12.088 208.334 12.2053 209.156 12.44C209.977 12.6747 210.681 13.012 211.268 13.452L209.992 16.664C209.024 15.9307 207.938 15.564 206.736 15.564Z" fill="#C3073F"/>
<line y1="-2.5" x2="188.702" y2="-2.5" transform="matrix(0.997624 -0.0688916 0.0642274 0.997935 17.2071 35)" stroke="#0B0C10" stroke-width="5"/>
<line y1="-0.5" x2="23.9754" y2="-0.5" transform="matrix(0.167813 0.985819 -0.983726 0.179673 0 24)" stroke="#14EEC7"/>
<line y1="-0.5" x2="23.9754" y2="-0.5" transform="matrix(0.167813 0.985819 -0.983726 0.179673 218.977 1)" stroke="#14EEC7"/>
</svg>
