<svg width="48" height="48" viewBox="0 0 48 48" fill="none" xmlns="http://www.w3.org/2000/svg">
<ellipse cx="24" cy="24" rx="23.8276" ry="24" fill="#0B0C10"/>
<path d="M34.0713 9.25173L34.0701 9.25054C33.4527 8.59555 32.5775 8.21344 31.6519 8.20236L31.6516 8.20236C30.7258 8.19066 29.8401 8.55083 29.2054 9.19051L28.5522 9.84888L28.3612 8.94133C28.2238 8.28854 27.9044 7.6821 27.4348 7.1883L27.4332 7.18666C26.7929 6.50713 25.8766 6.12284 24.9163 6.13783C23.9561 6.15281 23.0534 6.56565 22.4366 7.2643L21.8742 7.90125L21.5904 7.10034C21.4217 6.62406 21.1522 6.18511 20.7981 5.81183C20.1669 5.14955 19.2748 4.76684 18.3339 4.76127C16.3318 4.82752 14.7897 6.436 14.8448 8.32832L14.845 8.33559V8.34287V11.0436V11.9347L14.0845 11.4704C13.7662 11.2761 13.3962 11.1706 13.0166 11.1673C11.7162 11.1721 10.4809 11.7029 9.61 12.624L9.60813 12.6259C8.69622 13.58 8.19741 14.8299 8.20843 16.1213L8.20847 16.1256H8.20845V26.1829L8.22716 26.2496L8.22388 26.3044C8.74328 27.9787 9.5227 29.568 10.5361 31.0181L10.5372 31.0196C11.5065 32.4176 12.2698 33.9401 12.804 35.5423L12.8157 35.5773L12.8221 35.6136C12.9645 36.4206 13.0134 37.2399 12.9686 38.057C12.9607 38.836 12.9548 39.5756 13.0544 40.2284C13.154 40.881 13.3499 41.3761 13.6905 41.71C14.0337 42.0316 14.5028 42.2056 14.9879 42.1855L14.9982 42.1851H15.0086C16.5352 42.1851 17.9042 42.1884 19.2739 42.1917H19.2762H19.2764C20.4707 42.195 21.673 42.1976 22.9721 42.1987H23.5455C24.8228 42.1987 26.4522 42.1959 28.1323 42.1931C28.403 42.1926 28.675 42.1921 28.9471 42.1917H28.9479C30.0588 42.1917 31.1702 42.19 32.1948 42.1884L32.4846 42.1879C33.3961 42.1865 34.23 42.1851 34.921 42.1851H34.9314L34.9417 42.1855C35.425 42.2056 35.8919 42.0319 36.2331 41.7113C36.5689 41.3798 36.7607 40.8881 36.8558 40.239C36.9509 39.5897 36.9404 38.8542 36.9273 38.0793C36.8759 37.2553 36.9219 36.4282 37.0641 35.6144L37.0674 35.5953L37.0722 35.5765C37.4438 34.1255 38.0359 32.3784 38.6542 30.5557M34.0713 9.25173L39.1277 30.7163M34.0713 9.25173C34.7286 9.94442 35.0882 10.8476 35.0828 11.78V11.7829V11.9675V12.9611L35.8808 12.369C36.7299 11.739 37.8811 11.6294 38.8438 12.0907L38.8438 12.0907C39.8047 12.5509 40.3985 13.4924 40.3922 14.5082V14.5113V24.569V24.6605L40.4246 24.7461C40.4312 24.7635 40.4328 24.7816 40.4301 24.7986M34.0713 9.25173L40.9194 24.9021M38.6542 30.5557L39.1277 30.7163M38.6542 30.5557L38.6541 30.5559L39.1277 30.7163M38.6542 30.5557L38.6549 30.5535C39.3441 28.5188 40.045 26.4493 40.4301 24.7986M39.1277 30.7163L39.1348 30.6952C39.8207 28.6703 40.5292 26.5784 40.9194 24.9021M40.4301 24.7986C40.4299 24.7999 40.4297 24.8012 40.4294 24.8026L40.9194 24.9021M40.4301 24.7986C40.4309 24.7953 40.4316 24.792 40.4324 24.7888L40.9194 24.9021M11.2669 30.6474L10.8559 30.9322C11.8375 32.3486 12.6046 33.8923 13.1343 35.5167C13.2903 36.3442 13.3455 37.1866 13.299 38.0264L13.2983 38.0376L13.2982 38.0489L13.298 38.0672C13.2918 38.6666 13.2848 39.3423 13.3474 39.9335C13.3791 40.2337 13.4304 40.5301 13.5164 40.7956C13.6012 41.0577 13.7306 41.3232 13.9401 41.5275L13.9475 41.5348L13.9552 41.5417C14.2486 41.8051 14.639 41.9344 15.031 41.9039C16.5487 41.904 17.913 41.9072 19.2775 41.911H19.2779C19.6024 41.9116 19.9271 41.9123 20.2541 41.9131C21.2494 41.9153 22.2651 41.9176 23.3567 41.9176H23.3569C24.6768 41.9169 26.4098 41.9143 28.1979 41.9116L28.9467 41.9105H28.9504C31.1613 41.9072 33.3709 41.904 34.8952 41.9039C35.2843 41.9372 35.6728 41.811 35.9653 41.5511L35.9748 41.5426L35.984 41.5336C36.1911 41.3296 36.3176 41.065 36.3998 40.8049C36.4831 40.5412 36.5318 40.2469 36.5613 39.9491C36.6194 39.3613 36.6079 38.689 36.5978 38.0916L36.5975 38.0765L36.5973 38.0652L36.5966 38.0539C36.5434 37.2006 36.596 36.344 36.7541 35.5031C37.1268 34.0542 37.7099 32.3311 38.3373 30.4804L38.3376 30.4797L38.3823 30.3471C39.0171 28.4665 39.6772 26.5105 40.0626 24.9288L40.0937 24.801L40.0646 24.6981L40.0646 14.5113L40.0646 14.5106C40.0628 13.2323 39.047 12.1962 37.7661 12.0995L37.766 12.0995C36.4869 12.0033 35.3209 12.8727 35.114 14.1323L35.1099 14.1573L35.1083 14.1826C35.1083 14.1833 35.1079 14.1881 35.1062 14.1977L35.1061 14.1977L35.1048 14.2061C35.0894 14.3033 35.0814 14.4036 35.0827 14.5056C35.0815 14.5408 35.0817 14.5763 35.0834 14.6115L35.0846 14.6368L35.0856 14.6429C35.0839 14.6592 35.0828 14.6771 35.0828 14.6964V19.6362C35.0828 19.697 35.0266 19.7767 34.9188 19.7767C34.8118 19.7767 34.7553 19.6972 34.7553 19.6362V11.7848C34.7617 10.9147 34.4282 10.0767 33.8261 9.43801L33.8247 9.43659C33.2504 8.83208 32.4453 8.48892 31.6041 8.48335L31.5912 8.48326L31.5783 8.48384C29.791 8.5643 28.3762 10.027 28.446 11.7931V19.4439C28.446 19.5054 28.3894 19.5848 28.2822 19.5848C28.1755 19.5848 28.1187 19.5055 28.1187 19.4439V9.72052C28.1251 8.85035 27.7916 8.01264 27.1892 7.37373L27.1882 7.37258C26.6141 6.76749 25.809 6.42449 24.9673 6.41837L24.9542 6.41827L24.9411 6.41886C23.1537 6.49959 21.7388 7.96274 21.8092 9.72897V19.6362C21.8092 19.6972 21.7527 19.7767 21.6456 19.7767C21.5381 19.7767 21.4819 19.6972 21.4819 19.6362V8.3448C21.4885 7.47422 21.1544 6.63638 20.5527 5.99787L20.5514 5.99644C19.9771 5.39177 19.1721 5.04799 18.3304 5.04241L18.3175 5.04233L18.3045 5.04291C16.517 5.12364 15.1022 6.58681 15.1726 8.35324V25.0239C15.1726 25.0847 15.1163 25.1644 15.0086 25.1644C14.9015 25.1644 14.845 25.0849 14.845 25.0239V13.3825C14.8893 12.3515 14.0704 11.5049 13.0448 11.4495L13.0299 11.4487L13.0149 11.4487C11.8142 11.4556 10.6672 11.9475 9.8537 12.8114C8.99697 13.7125 8.52389 14.8982 8.53572 16.1281V26.1526V26.2312L8.55987 26.3061C9.08971 27.9484 9.8634 29.5066 10.8565 30.933L11.2669 30.6474ZM11.2669 30.6474C10.3017 29.2611 9.55025 27.7474 9.03572 26.1526L13.7982 38.054C13.8475 37.1632 13.7877 36.2696 13.6196 35.3922C13.0744 33.7101 12.2821 32.1122 11.2669 30.6474ZM36.0819 11.6616C36.0065 11.6991 35.9324 11.7395 35.8597 11.7829H36.0828V11.7843V11.9675L36.0819 11.6616ZM35.109 14.5313C35.1097 14.529 35.1101 14.5278 35.1096 14.5293L35.109 14.5313Z" stroke="#C3073F"/>
<path d="M11.6906 26.0423V23.48C11.6906 23.1262 11.3933 22.8393 11.0268 22.8393C10.6603 22.8393 10.3633 23.1262 10.3633 23.48V26.0423C10.3633 26.596 11.2922 28.2246 13.1294 30.8822C13.3326 31.1769 13.7448 31.2562 14.0498 31.0598C14.3548 30.8635 14.4372 30.4656 14.2338 30.1711C13.2781 28.8595 12.4282 27.4791 11.6906 26.0423Z" fill="#C3073F"/>
<path d="M11.0268 21.5581C11.3933 21.5581 11.6906 21.2712 11.6906 20.9177V19.6362C11.6906 19.2825 11.3933 18.9955 11.0268 18.9955C10.6603 18.9955 10.3633 19.2825 10.3633 19.6362V20.9177C10.3633 21.2712 10.6603 21.5581 11.0268 21.5581Z" fill="#C3073F"/>
<path d="M32.746 36.3175C23.8051 38.7827 17.3102 36.3623 17.2453 36.3381C16.905 36.207 16.5188 36.367 16.383 36.6957C16.2473 37.0246 16.4131 37.3971 16.7536 37.5283C19.2903 38.3703 21.9609 38.7738 24.6426 38.7203C27.5079 38.7125 30.3578 38.3182 33.1098 37.5489C33.3458 37.4928 33.5315 37.3169 33.5937 37.0903C33.6557 36.8632 33.5843 36.622 33.4078 36.4608C33.2309 36.2997 32.9774 36.2448 32.746 36.3175Z" fill="#C3073F"/>
</svg>
